<svg xmlns="http://www.w3.org/2000/svg" viewBox="0 0 100 100"><defs><style>.cls-1{fill:#1d1111;}</style></defs><title>Asset 3</title><g id="Layer_2" data-name="Layer 2"><g id="Layer_1-2" data-name="Layer 1"><path class="cls-1" d="M94.48,0h-89A5.52,5.52,0,0,0,0,5.52v89A5.52,5.52,0,0,0,5.52,100h47.9V61.33h-13V46.19h13V35.05c0-12.91,7.89-19.95,19.41-19.95a102.89,102.89,0,0,1,11.64.6V29.2H76.53c-6.27,0-7.49,3-7.49,7.35v9.64H84L82,61.33H69V100H94.48A5.52,5.52,0,0,0,100,94.48v-89A5.52,5.52,0,0,0,94.48,0Z"/></g></g></svg>