<svg xmlns="http://www.w3.org/2000/svg" viewBox="0 0 100 100"><defs><style>.cls-1{fill:#1d1111;}</style></defs><title>Asset 2</title><g id="Layer_2" data-name="Layer 2"><g id="Layer_1-2" data-name="Layer 1"><path class="cls-1" d="M92.6,0H7.38A7.3,7.3,0,0,0,0,7.21V92.79A7.3,7.3,0,0,0,7.38,100H92.6a7.31,7.31,0,0,0,7.4-7.21V7.21A7.31,7.31,0,0,0,92.6,0ZM29.66,85.21H14.82V37.49H29.66ZM22.24,31a8.6,8.6,0,1,1,8.6-8.6A8.59,8.59,0,0,1,22.24,31Zm63,54.24H70.39V62c0-5.54-.1-12.66-7.71-12.66s-8.9,6-8.9,12.26v23.6H39V37.49H53.19V44h.2c2-3.75,6.82-7.7,14-7.7,15,0,17.8,9.88,17.8,22.73Z"/></g></g></svg>