<svg xmlns="http://www.w3.org/2000/svg" viewBox="0 0 100 100"><defs><style>.cls-1{fill:#1d1111;}</style></defs><title>Asset 4</title><g id="Layer_2" data-name="Layer 2"><g id="Layer_1-2" data-name="Layer 1"><path class="cls-1" d="M0,0V100H100V0ZM83.08,23.69l-5.37,5.14a1.58,1.58,0,0,0-.59,1.51V68.12a1.58,1.58,0,0,0,.59,1.51L83,74.77V75.9H56.61V74.77L62,69.5c.54-.53.54-.69.54-1.5V37.46L47.48,75.77h-2L27.88,37.46V63.14a3.51,3.51,0,0,0,1,2.94l7.06,8.56v1.13h-20V74.64l7-8.56a3.36,3.36,0,0,0,.91-2.94V33.44A2.59,2.59,0,0,0,23,31.25l-6.28-7.56V22.56H36.22l15.05,33,13.24-33H83.08Z"/></g></g></svg>